<svg width="180" height="52" viewBox="0 0 180 52" fill="none" xmlns="http://www.w3.org/2000/svg">
<path d="M179 46.003C179 48.7741 176.709 51.0188 173.874 51.0188H6.13243C3.2995 51.0188 1 48.7741 1 46.003V6.00345C1 3.23362 3.2995 0.981079 6.13243 0.981079H173.873C176.709 0.981079 178.999 3.23362 178.999 6.00345L179 46.003Z" fill="black"/>
<path d="M173.333 1.04162C176.42 1.04162 178.932 3.4905 178.932 6.5V45.5C178.932 48.5095 176.42 50.9584 173.333 50.9584H6.66667C3.58 50.9584 1.06833 48.5095 1.06833 45.5V6.5C1.06833 3.4905 3.58 1.04162 6.66667 1.04162H173.333ZM173.333 2.74817e-06H6.66667C3.00167 2.74817e-06 0 2.92663 0 6.5V45.5C0 49.0734 3.00167 52 6.66667 52H173.333C176.998 52 180 49.0734 180 45.5V6.5C180 2.92663 176.998 2.74817e-06 173.333 2.74817e-06Z" fill="#A6A6A6"/>
<path d="M40.1705 25.7191C40.1318 21.5292 43.6891 19.4908 43.8518 19.3959C41.8371 16.532 38.7145 16.1407 37.6171 16.1095C34.9945 15.8404 32.4505 17.6396 31.1145 17.6396C29.7518 17.6396 27.6945 16.1355 25.4771 16.1797C22.6238 16.2226 19.9545 17.8333 18.4905 20.3345C15.4691 25.4344 17.7225 32.9289 20.6171 37.0512C22.0651 39.0701 23.7571 41.3243 25.9718 41.245C28.1385 41.1579 28.9478 39.8982 31.5625 39.8982C34.1531 39.8982 34.9131 41.245 37.1718 41.1943C39.4971 41.1579 40.9611 39.1663 42.3585 37.1292C44.0318 34.8152 44.7038 32.5363 44.7305 32.4193C44.6758 32.4011 40.2145 30.741 40.1705 25.7191Z" fill="white"/>
<path d="M35.9038 13.3977C37.0691 11.9768 37.8665 10.0437 37.6451 8.08203C35.9585 8.15483 33.8491 9.21953 32.6345 10.6092C31.5598 11.8338 30.5998 13.841 30.8478 15.7286C32.7425 15.8664 34.6878 14.7965 35.9038 13.3977Z" fill="white"/>
<path d="M65.3997 13.0117C65.3997 14.5418 64.9291 15.6936 63.989 16.4671C63.1184 17.1808 61.881 17.5383 60.2784 17.5383C59.4837 17.5383 58.8037 17.5045 58.2344 17.4369V9.07658C58.977 8.95958 59.777 8.89978 60.641 8.89978C62.1677 8.89978 63.3184 9.22348 64.0944 9.87088C64.9637 10.6028 65.3997 11.6493 65.3997 13.0117ZM63.9264 13.0494C63.9264 12.0575 63.657 11.297 63.1184 10.7666C62.5797 10.2375 61.793 9.97228 60.757 9.97228C60.317 9.97228 59.9424 10.0009 59.6317 10.0607V16.4164C59.8037 16.4424 60.1184 16.4541 60.5757 16.4541C61.645 16.4541 62.4704 16.1642 63.0517 15.5844C63.6331 15.0046 63.9264 14.1596 63.9264 13.0494Z" fill="white"/>
<path d="M73.2117 14.3482C73.2117 15.2907 72.9357 16.0629 72.3837 16.6687C71.805 17.2914 71.0383 17.6021 70.081 17.6021C69.1583 17.6021 68.4237 17.3044 67.8757 16.7064C67.329 16.1097 67.0557 15.357 67.0557 14.4496C67.0557 13.5006 67.337 12.7219 67.9023 12.1174C68.4677 11.5129 69.2277 11.21 70.185 11.21C71.1077 11.21 71.849 11.5077 72.4103 12.1044C72.9437 12.6842 73.2117 13.433 73.2117 14.3482ZM71.7623 14.3924C71.7623 13.8269 71.637 13.342 71.3877 12.9377C71.0943 12.4489 70.677 12.2045 70.1343 12.2045C69.573 12.2045 69.1463 12.4489 68.853 12.9377C68.6023 13.342 68.4783 13.8347 68.4783 14.4171C68.4783 14.9826 68.6037 15.4675 68.853 15.8718C69.1557 16.3606 69.577 16.605 70.121 16.605C70.6543 16.605 71.073 16.3567 71.3743 15.8588C71.633 15.4467 71.7623 14.9579 71.7623 14.3924Z" fill="white"/>
<path d="M83.6867 11.3347L81.7201 17.4629H80.4401L79.6254 14.8018C79.4187 14.1375 79.2507 13.4771 79.1201 12.8219H79.0947C78.9734 13.4953 78.8054 14.1544 78.5894 14.8018L77.7241 17.4629H76.4294L74.5801 11.3347H76.0161L76.7267 14.248C76.8987 14.937 77.0401 15.5935 77.1534 16.2149H77.1787C77.2827 15.7027 77.4547 15.0501 77.6974 14.261L78.5894 11.336H79.7281L80.5827 14.1986C80.7894 14.8967 80.9574 15.5688 81.0867 16.2162H81.1254C81.2201 15.5857 81.3627 14.9136 81.5521 14.1986L82.3147 11.336H83.6867V11.3347Z" fill="white"/>
<path d="M90.9302 17.463H89.5329V13.953C89.5329 12.8714 89.1116 12.3306 88.2662 12.3306C87.8516 12.3306 87.5169 12.4788 87.2569 12.7765C86.9996 13.0742 86.8689 13.4252 86.8689 13.8269V17.4617H85.4716V13.0859C85.4716 12.5477 85.4542 11.964 85.4209 11.3322H86.6489L86.7142 12.2903H86.7529C86.9156 11.9926 87.1582 11.7469 87.4769 11.5506C87.8556 11.3218 88.2796 11.2061 88.7436 11.2061C89.3302 11.2061 89.8182 11.3907 90.2062 11.7612C90.6889 12.2149 90.9302 12.8922 90.9302 13.7918V17.463Z" fill="white"/>
<path d="M94.7837 17.4629H93.3877V8.52283H94.7837V17.4629Z" fill="white"/>
<path d="M103.01 14.3482C103.01 15.2907 102.734 16.0629 102.182 16.6687C101.604 17.2914 100.836 17.6021 99.8798 17.6021C98.9558 17.6021 98.2212 17.3044 97.6745 16.7064C97.1278 16.1097 96.8545 15.357 96.8545 14.4496C96.8545 13.5006 97.1358 12.7219 97.7012 12.1174C98.2665 11.5129 99.0265 11.21 99.9825 11.21C100.906 11.21 101.646 11.5077 102.209 12.1044C102.742 12.6842 103.01 13.433 103.01 14.3482ZM101.56 14.3924C101.56 13.8269 101.434 13.342 101.185 12.9377C100.893 12.4489 100.474 12.2045 99.9332 12.2045C99.3705 12.2045 98.9438 12.4489 98.6518 12.9377C98.4012 13.342 98.2772 13.8347 98.2772 14.4171C98.2772 14.9826 98.4025 15.4675 98.6518 15.8718C98.9545 16.3606 99.3758 16.605 99.9198 16.605C100.453 16.605 100.87 16.3567 101.172 15.8588C101.432 15.4467 101.56 14.9579 101.56 14.3924Z" fill="white"/>
<path d="M109.773 17.463H108.519L108.415 16.7571H108.376C107.947 17.32 107.335 17.6021 106.54 17.6021C105.947 17.6021 105.467 17.4162 105.105 17.047C104.777 16.7116 104.613 16.2943 104.613 15.799C104.613 15.0502 104.933 14.4795 105.577 14.0843C106.22 13.6891 107.124 13.4954 108.288 13.5045V13.3901C108.288 12.5828 107.853 12.1798 106.983 12.1798C106.363 12.1798 105.816 12.3319 105.344 12.6335L105.06 11.7391C105.644 11.3868 106.365 11.21 107.216 11.21C108.859 11.21 109.683 12.055 109.683 13.745V16.0018C109.683 16.6141 109.713 17.1016 109.773 17.463ZM108.323 15.357V14.4119C106.781 14.3859 106.011 14.798 106.011 15.6469C106.011 15.9667 106.099 16.2059 106.279 16.3658C106.459 16.5257 106.688 16.605 106.961 16.605C107.268 16.605 107.555 16.5101 107.816 16.3216C108.079 16.1318 108.24 15.8913 108.3 15.5962C108.315 15.5299 108.323 15.4493 108.323 15.357Z" fill="white"/>
<path d="M117.713 17.4629H116.473L116.408 16.4788H116.369C115.973 17.2276 115.298 17.602 114.35 17.602C113.593 17.602 112.962 17.3121 112.462 16.7323C111.962 16.1525 111.713 15.3998 111.713 14.4755C111.713 13.4836 111.984 12.6802 112.528 12.0666C113.054 11.4946 113.7 11.2086 114.468 11.2086C115.312 11.2086 115.902 11.4855 116.238 12.0406H116.265V8.52283H117.664V15.8119C117.664 16.4086 117.68 16.9585 117.713 17.4629ZM116.265 14.8785V13.8567C116.265 13.6799 116.252 13.5369 116.226 13.4277C116.148 13.1001 115.978 12.8245 115.721 12.6022C115.461 12.3799 115.148 12.2681 114.786 12.2681C114.265 12.2681 113.857 12.4696 113.557 12.8739C113.26 13.2782 113.109 13.7943 113.109 14.4248C113.109 15.0306 113.252 15.522 113.538 15.9003C113.841 16.3033 114.249 16.5048 114.76 16.5048C115.218 16.5048 115.585 16.3371 115.864 16.0004C116.133 15.6897 116.265 15.3153 116.265 14.8785Z" fill="white"/>
<path d="M129.664 14.3482C129.664 15.2907 129.388 16.0629 128.836 16.6687C128.257 17.2914 127.492 17.6021 126.533 17.6021C125.612 17.6021 124.877 17.3044 124.328 16.7064C123.781 16.1097 123.508 15.357 123.508 14.4496C123.508 13.5006 123.789 12.7219 124.354 12.1174C124.92 11.5129 125.68 11.21 126.638 11.21C127.56 11.21 128.302 11.5077 128.862 12.1044C129.396 12.6842 129.664 13.433 129.664 14.3482ZM128.216 14.3924C128.216 13.8269 128.09 13.342 127.841 12.9377C127.546 12.4489 127.13 12.2045 126.586 12.2045C126.026 12.2045 125.6 12.4489 125.305 12.9377C125.054 13.342 124.93 13.8347 124.93 14.4171C124.93 14.9826 125.056 15.4675 125.305 15.8718C125.608 16.3606 126.029 16.605 126.573 16.605C127.106 16.605 127.526 16.3567 127.828 15.8588C128.085 15.4467 128.216 14.9579 128.216 14.3924Z" fill="white"/>
<path d="M137.177 17.463H135.781V13.953C135.781 12.8714 135.36 12.3306 134.513 12.3306C134.098 12.3306 133.764 12.4788 133.505 12.7765C133.246 13.0742 133.117 13.4252 133.117 13.8269V17.4617H131.718V13.0859C131.718 12.5477 131.702 11.964 131.669 11.3322H132.896L132.961 12.2903H133C133.164 11.9926 133.406 11.7469 133.724 11.5506C134.104 11.3218 134.526 11.2061 134.992 11.2061C135.577 11.2061 136.065 11.3907 136.453 11.7612C136.937 12.2149 137.177 12.8922 137.177 13.7918V17.463Z" fill="white"/>
<path d="M146.581 12.3553H145.042V15.3323C145.042 16.0889 145.316 16.4672 145.857 16.4672C146.108 16.4672 146.316 16.4464 146.48 16.4035L146.516 17.437C146.24 17.5384 145.877 17.5891 145.43 17.5891C144.878 17.5891 144.449 17.4253 144.138 17.0977C143.826 16.7701 143.672 16.2189 143.672 15.4454V12.3553H142.753V11.3348H143.672V10.2116L145.041 9.80859V11.3335H146.58V12.3553H146.581Z" fill="white"/>
<path d="M153.978 17.4629H152.58V13.9789C152.58 12.8804 152.158 12.3305 151.314 12.3305C150.666 12.3305 150.224 12.649 149.981 13.286C149.94 13.4199 149.916 13.5837 149.916 13.7761V17.4616H148.52V8.52283H149.916V12.2161H149.942C150.382 11.544 151.013 11.2086 151.83 11.2086C152.409 11.2086 152.888 11.3932 153.268 11.7637C153.741 12.2252 153.978 12.9116 153.978 13.819V17.4629Z" fill="white"/>
<path d="M161.609 14.1089C161.609 14.3533 161.591 14.5587 161.557 14.7264H157.367C157.385 15.3322 157.585 15.7937 157.973 16.1135C158.328 16.3995 158.785 16.5425 159.345 16.5425C159.965 16.5425 160.531 16.4463 161.04 16.2526L161.259 17.199C160.663 17.4512 159.961 17.5773 159.149 17.5773C158.176 17.5773 157.409 17.2978 156.855 16.7388C156.297 16.1798 156.021 15.4297 156.021 14.4885C156.021 13.5642 156.279 12.7946 156.797 12.181C157.339 11.5258 158.071 11.1982 158.995 11.1982C159.899 11.1982 160.585 11.5258 161.049 12.181C161.424 12.701 161.609 13.3445 161.609 14.1089ZM160.276 13.7566C160.287 13.3523 160.195 13.0039 160.005 12.7101C159.763 12.3318 159.393 12.142 158.893 12.142C158.437 12.142 158.065 12.3266 157.781 12.6971C157.549 12.9922 157.412 13.3445 157.367 13.7566H160.276Z" fill="white"/>
<path d="M71.5269 40.9551H68.4989L66.8402 35.8734H61.0749L59.4949 40.9551H56.5469L62.2589 23.6547H65.7869L71.5269 40.9551ZM66.3402 33.7414L64.8402 29.2239C64.6815 28.7624 64.3842 27.6756 63.9455 25.9648H63.8922C63.7175 26.7006 63.4362 27.7874 63.0495 29.2239L61.5762 33.7414H66.3402Z" fill="white"/>
<path d="M86.2159 34.5643C86.2159 36.6859 85.6279 38.3629 84.4519 39.594C83.3985 40.6899 82.0905 41.2372 80.5292 41.2372C78.8439 41.2372 77.6332 40.647 76.8959 39.4666H76.8425V46.0381H73.9999V32.587C73.9999 31.2532 73.9639 29.8843 73.8945 28.4803H76.3945L76.5532 30.4576H76.6065C77.5545 28.9678 78.9932 28.2242 80.9239 28.2242C82.4332 28.2242 83.6932 28.8053 84.7012 29.9688C85.7119 31.1336 86.2159 32.665 86.2159 34.5643ZM83.3199 34.6657C83.3199 33.4515 83.0399 32.4505 82.4772 31.6627C81.8625 30.8411 81.0372 30.4303 80.0025 30.4303C79.3012 30.4303 78.6639 30.6591 78.0945 31.1102C77.5239 31.5652 77.1505 32.1593 76.9759 32.8951C76.8879 33.2383 76.8439 33.5191 76.8439 33.7401V35.8201C76.8439 36.7275 77.1292 37.4932 77.6999 38.1185C78.2705 38.7438 79.0119 39.0558 79.9239 39.0558C80.9945 39.0558 81.8279 38.6528 82.4239 37.8494C83.0212 37.0447 83.3199 35.9839 83.3199 34.6657Z" fill="white"/>
<path d="M100.932 34.5643C100.932 36.6859 100.344 38.3629 99.167 39.594C98.115 40.6899 96.807 41.2372 95.2456 41.2372C93.5603 41.2372 92.3496 40.647 91.6136 39.4666H91.5603V46.0381H88.7176V32.587C88.7176 31.2532 88.6816 29.8843 88.6123 28.4803H91.1123L91.271 30.4576H91.3243C92.271 28.9678 93.7096 28.2242 95.6416 28.2242C97.1496 28.2242 98.4096 28.8053 99.4203 29.9688C100.427 31.1336 100.932 32.665 100.932 34.5643ZM98.0363 34.6657C98.0363 33.4515 97.755 32.4505 97.1923 31.6627C96.5776 30.8411 95.755 30.4303 94.719 30.4303C94.0163 30.4303 93.3803 30.6591 92.8096 31.1102C92.239 31.5652 91.867 32.1593 91.6923 32.8951C91.6056 33.2383 91.5603 33.5191 91.5603 33.7401V35.8201C91.5603 36.7275 91.8456 37.4932 92.4136 38.1185C92.9843 38.7425 93.7256 39.0558 94.6403 39.0558C95.711 39.0558 96.5443 38.6528 97.1403 37.8494C97.7376 37.0447 98.0363 35.9839 98.0363 34.6657Z" fill="white"/>
<path d="M117.386 36.1035C117.386 37.5751 116.862 38.7724 115.81 39.6967C114.654 40.7068 113.045 41.2112 110.977 41.2112C109.067 41.2112 107.537 40.8524 106.378 40.1335L107.037 37.8234C108.285 38.5592 109.654 38.9284 111.146 38.9284C112.217 38.9284 113.05 38.6918 113.649 38.2212C114.245 37.7506 114.542 37.1188 114.542 36.331C114.542 35.629 114.297 35.0375 113.805 34.5578C113.315 34.0781 112.498 33.6322 111.357 33.2201C108.25 32.0904 106.698 30.4355 106.698 28.2593C106.698 26.8371 107.242 25.671 108.331 24.7636C109.417 23.8549 110.865 23.4012 112.675 23.4012C114.29 23.4012 115.631 23.6755 116.702 24.2228L115.991 26.4822C114.991 25.9518 113.861 25.6866 112.595 25.6866C111.595 25.6866 110.814 25.9271 110.254 26.4055C109.781 26.8332 109.543 27.3545 109.543 27.972C109.543 28.6558 109.814 29.2213 110.358 29.6659C110.831 30.0767 111.691 30.5213 112.939 31.001C114.466 31.6003 115.587 32.301 116.309 33.1044C117.027 33.9052 117.386 34.9075 117.386 36.1035Z" fill="white"/>
<path d="M126.784 30.5604H123.651V36.6171C123.651 38.1576 124.203 38.9272 125.31 38.9272C125.818 38.9272 126.239 38.8843 126.572 38.7985L126.651 40.9032C126.091 41.1073 125.354 41.21 124.44 41.21C123.318 41.21 122.44 40.8759 121.807 40.209C121.176 39.5408 120.859 38.4202 120.859 36.8459V30.5578H118.992V28.4778H120.859V26.1937L123.651 25.3721V28.4778H126.784V30.5604Z" fill="white"/>
<path d="M140.922 34.6151C140.922 36.5326 140.359 38.1069 139.236 39.338C138.059 40.6055 136.496 41.2373 134.548 41.2373C132.671 41.2373 131.176 40.6302 130.062 39.416C128.947 38.2018 128.39 36.6691 128.39 34.8218C128.39 32.8887 128.963 31.3053 130.114 30.0742C131.262 28.8418 132.811 28.2256 134.759 28.2256C136.636 28.2256 138.147 28.8327 139.287 30.0482C140.378 31.2273 140.922 32.7496 140.922 34.6151ZM137.972 34.7048C137.972 33.5543 137.72 32.5676 137.21 31.7447C136.614 30.7489 135.762 30.2523 134.658 30.2523C133.515 30.2523 132.647 30.7502 132.051 31.7447C131.54 32.5689 131.288 33.5712 131.288 34.7568C131.288 35.9073 131.54 36.894 132.051 37.7156C132.666 38.7114 133.524 39.208 134.632 39.208C135.718 39.208 136.57 38.701 137.184 37.6896C137.708 36.8511 137.972 35.854 137.972 34.7048Z" fill="white"/>
<path d="M150.162 30.9178C149.88 30.8671 149.58 30.8411 149.266 30.8411C148.266 30.8411 147.492 31.209 146.948 31.9461C146.475 32.5961 146.238 33.4177 146.238 34.4096V40.9551H143.396L143.423 32.4089C143.423 30.9711 143.387 29.662 143.316 28.4816H145.792L145.896 30.8684H145.975C146.275 30.0481 146.748 29.3877 147.396 28.8924C148.03 28.4465 148.714 28.2242 149.451 28.2242C149.714 28.2242 149.951 28.2424 150.162 28.2749V30.9178Z" fill="white"/>
<path d="M162.875 34.1275C162.875 34.6241 162.841 35.0427 162.771 35.3846H154.243C154.276 36.617 154.688 37.5595 155.48 38.2095C156.199 38.7906 157.128 39.0818 158.269 39.0818C159.532 39.0818 160.684 38.8855 161.72 38.4916L162.165 40.4156C160.955 40.9304 159.525 41.1865 157.876 41.1865C155.892 41.1865 154.335 40.6171 153.201 39.4796C152.071 38.3421 151.504 36.8146 151.504 34.8984C151.504 33.0173 152.031 31.4508 153.085 30.2015C154.189 28.8677 155.681 28.2008 157.559 28.2008C159.403 28.2008 160.799 28.8677 161.747 30.2015C162.497 31.261 162.875 32.5714 162.875 34.1275ZM160.164 33.4086C160.183 32.587 159.997 31.8772 159.612 31.2779C159.12 30.507 158.364 30.1222 157.347 30.1222C156.417 30.1222 155.661 30.4979 155.084 31.2519C154.611 31.8512 154.329 32.5701 154.243 33.4073H160.164V33.4086Z" fill="white"/>
</svg>
