<svg width="180" height="52" viewBox="0 0 180 52" fill="none" xmlns="http://www.w3.org/2000/svg">
<path d="M173.333 52H6.66667C3.00167 52 0 49.0734 0 45.5V6.5C0 2.92663 3.00167 2.74817e-06 6.66667 2.74817e-06H173.333C176.998 2.74817e-06 180 2.92663 180 6.5V45.5C180 49.0734 176.998 52 173.333 52Z" fill="black"/>
<path d="M173.333 1.04162C176.42 1.04162 178.932 3.4905 178.932 6.5V45.5C178.932 48.5095 176.42 50.9584 173.333 50.9584H6.66667C3.58 50.9584 1.06833 48.5095 1.06833 45.5V6.5C1.06833 3.4905 3.58 1.04162 6.66667 1.04162H173.333ZM173.333 2.74817e-06H6.66667C3.00167 2.74817e-06 0 2.92663 0 6.5V45.5C0 49.0734 3.00167 52 6.66667 52H173.333C176.998 52 180 49.0734 180 45.5V6.5C180 2.92663 176.998 2.74817e-06 173.333 2.74817e-06Z" fill="#A6A6A6"/>
<path d="M13.9133 9.80032C13.5216 10.2001 13.2949 10.8224 13.2949 11.6284V40.3779C13.2949 41.1839 13.5216 41.8063 13.9133 42.2061L14.0099 42.2938L30.5332 26.1901V25.8098L14.0099 9.70607L13.9133 9.80032Z" fill="url(#paint0_linear_128_734)"/>
<path d="M36.0349 31.5607L30.5332 26.19V25.8098L36.0415 20.4392L36.1649 20.509L42.6882 24.1279C44.5499 25.1549 44.5499 26.8449 42.6882 27.8784L36.1649 31.4908L36.0349 31.5607Z" fill="url(#paint1_linear_128_734)"/>
<path d="M36.1647 31.4908L30.5331 26L13.9131 42.2061C14.5314 42.8398 15.5398 42.9162 16.6864 42.2825L36.1647 31.4908Z" fill="url(#paint2_linear_128_734)"/>
<path d="M36.1647 20.5091L16.6864 9.71751C15.5398 9.09025 14.5314 9.16663 13.9131 9.80038L30.5331 26L36.1647 20.5091Z" fill="url(#paint3_linear_128_734)"/>
<path d="M63.2234 13.3168C63.2234 14.4023 62.8901 15.2717 62.2334 15.9201C61.4784 16.6887 60.4951 17.0754 59.2901 17.0754C58.1384 17.0754 57.155 16.6822 56.3484 15.9071C55.54 15.1206 55.1367 14.1553 55.1367 12.9999C55.1367 11.8446 55.54 10.8793 56.3484 10.0993C57.155 9.31769 58.1384 8.92444 59.2901 8.92444C59.8634 8.92444 60.41 9.03981 60.9317 9.25431C61.4517 9.47044 61.875 9.76294 62.1817 10.1237L61.4851 10.8094C60.95 10.1936 60.2217 9.88969 59.2901 9.88969C58.4501 9.88969 57.7217 10.1757 57.1034 10.7526C56.4917 11.3311 56.185 12.0802 56.185 12.9999C56.185 13.9197 56.4917 14.6753 57.1034 15.2538C57.7217 15.8242 58.4501 16.1167 59.2901 16.1167C60.1817 16.1167 60.9317 15.8242 61.5234 15.2473C61.9134 14.8654 62.1351 14.3389 62.1934 13.6662H59.2901V12.7269H63.1634C63.2101 12.9301 63.2234 13.1267 63.2234 13.3168Z" fill="white" stroke="white" stroke-width="0.16" stroke-miterlimit="10"/>
<path d="M69.3685 10.0603H65.7302V12.5303H69.0102V13.4695H65.7302V15.9395H69.3685V16.8966H64.7002V9.10315H69.3685V10.0603Z" fill="white" stroke="white" stroke-width="0.16" stroke-miterlimit="10"/>
<path d="M73.705 16.8966H72.675V10.0603H70.4434V9.10315H75.9384V10.0603H73.705V16.8966Z" fill="white" stroke="white" stroke-width="0.16" stroke-miterlimit="10"/>
<path d="M79.915 16.8966V9.10315H80.9434V16.8966H79.915Z" fill="white" stroke="white" stroke-width="0.16" stroke-miterlimit="10"/>
<path d="M85.5019 16.8966H84.4802V10.0603H82.2402V9.10315H87.7419V10.0603H85.5019V16.8966Z" fill="white" stroke="white" stroke-width="0.16" stroke-miterlimit="10"/>
<path d="M98.1446 15.8941C97.3563 16.6822 96.3796 17.0754 95.2146 17.0754C94.0429 17.0754 93.0663 16.6822 92.2779 15.8941C91.4913 15.1076 91.0996 14.1423 91.0996 12.9999C91.0996 11.8576 91.4913 10.8923 92.2779 10.1058C93.0663 9.31769 94.0429 8.92444 95.2146 8.92444C96.3729 8.92444 97.3496 9.31769 98.138 10.1123C98.9313 10.9053 99.3229 11.8641 99.3229 12.9999C99.3229 14.1423 98.9313 15.1076 98.1446 15.8941ZM93.0396 15.2408C93.6329 15.8242 94.3546 16.1167 95.2146 16.1167C96.0679 16.1167 96.7963 15.8242 97.3829 15.2408C97.9746 14.6574 98.2746 13.9083 98.2746 12.9999C98.2746 12.0916 97.9746 11.3424 97.3829 10.7591C96.7963 10.1757 96.0679 9.88319 95.2146 9.88319C94.3546 9.88319 93.6329 10.1757 93.0396 10.7591C92.4479 11.3424 92.1479 12.0916 92.1479 12.9999C92.1479 13.9083 92.4479 14.6574 93.0396 15.2408Z" fill="white" stroke="white" stroke-width="0.16" stroke-miterlimit="10"/>
<path d="M100.769 16.8966V9.10315H102.019L105.905 15.1644H105.95L105.905 13.6661V9.10315H106.934V16.8966H105.86L101.79 10.5364H101.745L101.79 12.0411V16.8966H100.769Z" fill="white" stroke="white" stroke-width="0.16" stroke-miterlimit="10"/>
<path d="M90.8464 28.2783C87.7147 28.2783 85.1564 30.602 85.1564 33.8082C85.1564 36.9883 87.7147 39.3364 90.8464 39.3364C93.9847 39.3364 96.543 36.9883 96.543 33.8082C96.543 30.602 93.9847 28.2783 90.8464 28.2783ZM90.8464 37.1589C89.128 37.1589 87.6497 35.776 87.6497 33.8082C87.6497 31.8143 89.128 30.4558 90.8464 30.4558C92.5647 30.4558 94.0497 31.8143 94.0497 33.8082C94.0497 35.776 92.5647 37.1589 90.8464 37.1589ZM78.4314 28.2783C75.293 28.2783 72.7414 30.602 72.7414 33.8082C72.7414 36.9883 75.293 39.3364 78.4314 39.3364C81.568 39.3364 84.1214 36.9883 84.1214 33.8082C84.1214 30.602 81.568 28.2783 78.4314 28.2783ZM78.4314 37.1589C76.7114 37.1589 75.2281 35.776 75.2281 33.8082C75.2281 31.8143 76.7114 30.4558 78.4314 30.4558C80.1497 30.4558 81.6281 31.8143 81.6281 33.8082C81.6281 35.776 80.1497 37.1589 78.4314 37.1589ZM63.6581 29.9732V32.3229H69.4131C69.2447 33.6359 68.7947 34.6012 68.1047 35.2739C67.2647 36.0864 65.9564 36.9883 63.6581 36.9883C60.1164 36.9883 57.3431 34.2014 57.3431 30.7483C57.3431 27.2952 60.1164 24.5083 63.6581 24.5083C65.5731 24.5083 66.9664 25.2379 67.9947 26.1837L69.6931 24.5278C68.2547 23.1888 66.3414 22.1602 63.6581 22.1602C58.8014 22.1602 54.7197 26.013 54.7197 30.7483C54.7197 35.4835 58.8014 39.3364 63.6581 39.3364C66.2831 39.3364 68.2547 38.4979 69.8047 36.9249C71.3931 35.3763 71.8881 33.1988 71.8881 31.4405C71.8881 30.8945 71.8414 30.3924 71.7581 29.9732H63.6581ZM124.068 31.7948C123.6 30.5582 122.155 28.2783 119.211 28.2783C116.295 28.2783 113.866 30.5192 113.866 33.8082C113.866 36.9054 116.27 39.3364 119.491 39.3364C122.096 39.3364 123.6 37.7878 124.218 36.8859L122.285 35.6298C121.64 36.5495 120.761 37.1589 119.491 37.1589C118.23 37.1589 117.325 36.595 116.745 35.4835L124.33 32.4237L124.068 31.7948ZM116.335 33.6359C116.27 31.5039 118.033 30.4119 119.296 30.4119C120.286 30.4119 121.126 30.8945 121.406 31.5852L116.335 33.6359ZM110.17 39H112.663V22.75H110.17V39ZM106.086 29.51H106.003C105.443 28.8633 104.375 28.2783 103.021 28.2783C100.181 28.2783 97.5847 30.7093 97.5847 33.826C97.5847 36.9249 100.181 39.3364 103.021 39.3364C104.375 39.3364 105.443 38.7465 106.003 38.0803H106.086V38.8733C106.086 40.9874 104.928 42.1233 103.06 42.1233C101.536 42.1233 100.591 41.0508 100.201 40.1489L98.033 41.0313C98.658 42.497 100.313 44.3008 103.06 44.3008C105.983 44.3008 108.45 42.6238 108.45 38.5434V28.6147H106.086V29.51ZM103.235 37.1589C101.516 37.1589 100.078 35.7565 100.078 33.826C100.078 31.8777 101.516 30.4558 103.235 30.4558C104.928 30.4558 106.263 31.8777 106.263 33.826C106.263 35.7565 104.928 37.1589 103.235 37.1589ZM135.741 22.75H129.778V39H132.265V32.8429H135.741C138.503 32.8429 141.211 30.8945 141.211 27.7957C141.211 24.6984 138.496 22.75 135.741 22.75ZM135.806 30.5825H132.265V25.0104H135.806C137.663 25.0104 138.723 26.5135 138.723 27.7957C138.723 29.0534 137.663 30.5825 135.806 30.5825ZM151.178 28.2474C149.381 28.2474 147.513 29.0209 146.745 30.7353L148.951 31.6372C149.426 30.7353 150.3 30.4428 151.223 30.4428C152.513 30.4428 153.821 31.1984 153.841 32.5325V32.7032C153.391 32.4497 152.428 32.0743 151.243 32.0743C148.866 32.0743 146.445 33.3499 146.445 35.7305C146.445 37.908 148.391 39.3104 150.58 39.3104C152.253 39.3104 153.176 38.5743 153.756 37.7179H153.841V38.974H156.243V32.7405C156.243 29.8594 154.036 28.2474 151.178 28.2474ZM150.878 37.1524C150.065 37.1524 148.931 36.7592 148.931 35.776C148.931 34.5183 150.345 34.0357 151.568 34.0357C152.663 34.0357 153.176 34.2713 153.841 34.5817C153.646 36.0864 152.318 37.1524 150.878 37.1524ZM164.993 28.6033L162.135 35.6477H162.05L159.095 28.6033H156.413L160.853 38.4475L158.32 43.9254H160.918L167.76 28.6033H164.993ZM142.578 39H145.071V22.75H142.578V39Z" fill="white"/>
<defs>
<linearGradient id="paint0_linear_128_734" x1="29.0662" y1="40.6773" x2="7.25605" y2="18.308" gradientUnits="userSpaceOnUse">
<stop stop-color="#00A0FF"/>
<stop offset="0.0066" stop-color="#00A1FF"/>
<stop offset="0.2601" stop-color="#00BEFF"/>
<stop offset="0.5122" stop-color="#00D2FF"/>
<stop offset="0.7604" stop-color="#00DFFF"/>
<stop offset="1" stop-color="#00E3FF"/>
</linearGradient>
<linearGradient id="paint1_linear_128_734" x1="45.1124" y1="25.9981" x2="12.8499" y2="25.9981" gradientUnits="userSpaceOnUse">
<stop stop-color="#FFE000"/>
<stop offset="0.4087" stop-color="#FFBD00"/>
<stop offset="0.7754" stop-color="#FFA500"/>
<stop offset="1" stop-color="#FF9C00"/>
</linearGradient>
<linearGradient id="paint2_linear_128_734" x1="33.1024" y1="23.015" x2="3.52611" y2="-7.31963" gradientUnits="userSpaceOnUse">
<stop stop-color="#FF3A44"/>
<stop offset="1" stop-color="#C31162"/>
</linearGradient>
<linearGradient id="paint3_linear_128_734" x1="9.72949" y1="51.7709" x2="22.9366" y2="38.2253" gradientUnits="userSpaceOnUse">
<stop stop-color="#32A071"/>
<stop offset="0.0685" stop-color="#2DA771"/>
<stop offset="0.4762" stop-color="#15CF74"/>
<stop offset="0.8009" stop-color="#06E775"/>
<stop offset="1" stop-color="#00F076"/>
</linearGradient>
</defs>
</svg>
